<svg width="182" height="48" viewBox="0 0 182 48" fill="none" xmlns="http://www.w3.org/2000/svg">
<g clip-path="url(#clip0_271_95)">
<path d="M12.569 40.6151C10.4199 38.6458 9.79248 34.5083 10.6878 31.5107C12.2404 33.4007 14.3916 33.9993 16.6198 34.3373C20.0596 34.8588 23.4378 34.6637 26.6333 33.0878C26.9988 32.9073 27.3366 32.6674 27.736 32.4244C28.0359 33.2963 28.114 34.1766 28.0092 35.0726C27.7545 37.2545 26.6713 38.94 24.9482 40.2176C24.2593 40.7287 23.5302 41.1855 22.8187 41.6674C20.6325 43.1485 20.0411 44.8851 20.8626 47.4112C20.8821 47.4727 20.8996 47.5342 20.9437 47.6844C19.8276 47.1838 19.0123 46.4548 18.391 45.4962C17.7349 44.4845 17.4228 43.3654 17.4063 42.1545C17.3981 41.5652 17.3981 40.9707 17.3191 40.3898C17.126 38.9733 16.4627 38.3393 15.2131 38.3027C13.9305 38.2652 12.916 39.0599 12.647 40.3115C12.6265 40.4075 12.5967 40.5024 12.5669 40.614L12.569 40.6151Z" fill="white"/>
<path d="M0.302734 31.0112C0.302734 31.0112 6.66663 27.9037 13.0484 27.9037L17.8599 12.9775C18.0401 12.2557 18.566 11.7651 19.1598 11.7651C19.7536 11.7651 20.2796 12.2557 20.4597 12.9775L25.2713 27.9037C32.8295 27.9037 38.0169 31.0112 38.0169 31.0112C38.0169 31.0112 27.2073 1.49397 27.1861 1.43474C26.8759 0.562053 26.3521 0 25.646 0H12.6747C11.9686 0 11.466 0.562053 11.1346 1.43474C11.1112 1.49285 0.302734 31.0112 0.302734 31.0112Z" fill="white"/>
<path d="M67.3991 26.7131C67.3991 29.3287 64.1533 30.8908 59.6593 30.8908C56.7346 30.8908 55.7002 30.1642 55.7002 28.6384C55.7002 27.04 56.9842 26.2771 59.909 26.2771C62.5485 26.2771 64.7954 26.3135 67.3991 26.6404V26.7131ZM67.4347 23.4799C65.83 23.1166 63.4047 22.8987 60.5151 22.8987C52.0978 22.8987 48.1387 24.8967 48.1387 29.5467C48.1387 34.3783 50.8494 36.2309 57.1269 36.2309C62.4415 36.2309 66.044 34.8868 67.3634 31.581H67.5774C67.5418 32.3802 67.5061 33.1794 67.5061 33.797C67.5061 35.5044 67.7915 35.6497 69.1828 35.6497H75.7457C75.3889 34.6325 75.1749 31.7626 75.1749 29.2923C75.1749 26.6404 75.2819 24.6424 75.2819 21.9542C75.2819 16.4686 72.0004 12.9812 61.728 12.9812C57.3052 12.9812 52.3831 13.744 48.638 14.8702C48.9947 16.3597 49.4941 19.3749 49.7437 21.3365C52.9895 19.8108 57.5906 19.1569 61.1572 19.1569C66.0797 19.1569 67.4347 20.283 67.4347 22.5717V23.4799Z" fill="white"/>
<path d="M85.4424 28.2387C84.5506 28.3477 83.3382 28.3477 82.0896 28.3477C80.7697 28.3477 79.5574 28.3113 78.7368 28.2023C78.7368 28.493 78.7012 28.82 78.7012 29.1106C78.7012 33.6516 81.6615 36.3035 92.0767 36.3035C101.885 36.3035 105.06 33.6879 105.06 29.0742C105.06 24.7149 102.956 22.5716 93.6457 22.0993C86.4056 21.7724 85.7635 20.9731 85.7635 20.0649C85.7635 19.0114 86.691 18.4665 91.5415 18.4665C96.571 18.4665 97.9261 19.1568 97.9261 20.6098V20.9368C98.6395 20.9005 99.9238 20.8642 101.243 20.8642C102.492 20.8642 103.847 20.9005 104.632 20.9731C104.632 20.6462 104.667 20.3556 104.667 20.1013C104.667 14.7611 100.244 13.0173 91.6842 13.0173C82.054 13.0173 78.8082 15.3787 78.8082 19.9923C78.8082 24.1336 81.4118 26.7129 90.6497 27.1126C97.4623 27.3305 98.2114 28.0934 98.2114 29.1469C98.2114 30.273 97.1055 30.7816 92.3264 30.7816C86.8337 30.7816 85.4424 30.0188 85.4424 28.4567V28.2387Z" fill="white"/>
<path d="M116.832 9.09399C114.229 11.528 109.556 13.9619 106.952 14.6158C106.988 15.9599 106.988 18.4302 106.988 19.7744L109.377 19.8107C109.342 22.3899 109.306 25.5141 109.306 27.5848C109.306 32.4164 111.838 36.0492 119.721 36.0492C123.038 36.0492 125.249 35.6859 127.996 35.1046C127.71 33.3246 127.39 30.6 127.283 28.5293C125.642 29.0743 123.573 29.3649 121.29 29.3649C118.116 29.3649 116.832 28.493 116.832 25.9864C116.832 23.8067 116.832 21.7724 116.868 19.8834C120.934 19.9196 125 19.9923 127.39 20.065C127.354 18.176 127.426 15.4513 127.533 13.635C124.073 13.7076 120.185 13.7439 116.975 13.7439C117.011 12.1455 117.046 10.6197 117.082 9.09399H116.832Z" fill="white"/>
<path d="M138.135 18.6845C138.17 16.7954 138.206 15.197 138.242 13.635H131.072C131.179 16.7592 131.179 19.956 131.179 24.6423C131.179 29.3285 131.144 32.5617 131.072 35.6496H139.276C139.133 33.4699 139.097 29.8008 139.097 26.6766C139.097 21.736 141.095 20.3192 145.624 20.3192C147.729 20.3192 149.227 20.5736 150.547 21.0458C150.583 19.1931 150.939 15.5966 151.153 13.9982C149.798 13.5986 148.299 13.3444 146.481 13.3444C142.593 13.308 139.739 14.9064 138.419 18.7208L138.135 18.6845Z" fill="white"/>
<path d="M173.848 24.497C173.848 28.4567 170.994 30.3094 166.5 30.3094C162.041 30.3094 159.188 28.5657 159.188 24.497C159.188 20.4283 162.077 18.9025 166.5 18.9025C170.959 18.9025 173.848 20.5373 173.848 24.497ZM181.302 24.3154C181.302 16.4323 175.167 12.9084 166.5 12.9084C157.797 12.9084 151.876 16.4323 151.876 24.3154C151.876 32.1622 157.405 36.3762 166.464 36.3762C175.595 36.3762 181.302 32.1622 181.302 24.3154Z" fill="white"/>
</g>
<defs>
<clipPath id="clip0_271_95">
<rect width="182" height="48" fill="#d9d9d9"/>
</clipPath>
</defs>
</svg>
