<svg width="101" height="19" viewBox="0 0 101 19" fill="none" xmlns="http://www.w3.org/2000/svg">
<path d="M11.4549 18.9999L9.62211 17.1875L15.9859 10.8237H0V8.17622H15.9859L9.62211 1.8226L11.4549 0L20.9549 9.49994L11.4549 18.9999Z" fill="#4640DE"/>
<path d="M24.7549 18.7491H28.0886V11.1292H36.1348V18.7491H39.4936V0.827148H36.1348V8.44713H28.0886V0.827148H24.7549V18.7491Z" fill="white"/>
<path d="M42.4001 18.7492H45.4331V5.63983H42.4001V18.7492ZM43.879 3.48415C44.8816 3.48415 45.6837 2.73217 45.6837 1.75461C45.6837 0.751977 44.8816 0 43.879 0C42.8764 0 42.0742 0.751977 42.0742 1.75461C42.0742 2.73217 42.8764 3.48415 43.879 3.48415Z" fill="white"/>
<path d="M48.1279 18.7493H51.1609V11.9315C51.1609 9.14918 52.765 8.29694 55.422 8.27186V5.43945C53.2163 5.46453 51.988 6.44208 51.1609 8.0964V5.64H48.1279V18.7493Z" fill="white"/>
<path d="M62.6083 19.0001C65.9671 19.0001 68.1979 17.4962 68.624 14.7389H65.6914C65.4658 16.0173 64.5132 16.7441 62.6834 16.7441C60.4276 16.7441 59.1742 15.3405 59.074 12.8589H68.6742V11.9816C68.6742 7.29436 65.7414 5.36426 62.4829 5.36426C58.7482 5.36426 55.9658 8.07136 55.9658 12.132V12.3326C55.9658 16.4685 58.7481 19.0001 62.6083 19.0001ZM59.1241 10.8286C59.4248 8.79829 60.6531 7.57005 62.4829 7.57005C64.3628 7.57005 65.5159 8.57267 65.6663 10.8286H59.1241Z" fill="white"/>
<path d="M77.5239 18.9999C82.2614 18.9999 84.7931 16.4181 84.7931 11.7308V0.827148H81.4342V11.455C81.4342 15.1648 80.1308 16.3178 77.549 16.3178C74.8921 16.3178 73.8393 14.9643 73.8393 11.6806V0.827148H70.4805V11.9313C70.4805 16.5434 73.0372 18.9999 77.5239 18.9999Z" fill="white"/>
<path d="M87.7422 18.7491H91.076V11.9313H93.5826C97.4179 11.9313 100.15 10.2519 100.15 6.46697V6.36665C100.15 2.60682 97.5176 0.827148 93.5073 0.827148H87.7422V18.7491ZM91.076 9.525V3.40893H93.5073C95.6376 3.40893 96.8916 4.2361 96.8916 6.36665V6.46697C96.8916 8.44713 95.7136 9.525 93.5073 9.525H91.076Z" fill="white"/>
</svg>
