<svg width="160" height="32" viewBox="0 0 160 32" fill="none" xmlns="http://www.w3.org/2000/svg">
<g clip-path="url(#clip0_271_41)">
<path d="M106.363 0.0200195H134.233V5.14882H123.177V32.1307H117.649V5.14882H106.363V0.0200195Z" fill="white"/>
<path d="M60.5283 0.0200195V5.14882H38.1893V13.3995H56.1543V18.5283H38.1893V27.002H60.5283V32.1307H32.6615V5.14882H32.6592V0.0200195H60.5283Z" fill="white"/>
<path d="M74.4451 0.0334473H67.2109L93.122 32.1442H100.377L87.4201 16.0999L100.357 0.0579457L93.122 0.0690925L83.7981 11.6149L74.4451 0.0334473Z" fill="white"/>
<path d="M81.8676 22.9703L78.2449 18.4792L67.1895 32.1687H74.4443L81.8676 22.9703Z" fill="white"/>
<path fill-rule="evenodd" clip-rule="evenodd" d="M32.8556 32.131L6.90969 0.00683594H0V32.1176H5.52776V6.87049L25.9114 32.131H32.8556Z" fill="white"/>
<path d="M135.475 31.9345C135.07 31.9345 134.725 31.7947 134.437 31.515C134.149 31.2353 134.006 30.8968 134.01 30.4957C134.006 30.1056 134.149 29.7707 134.437 29.491C134.725 29.2114 135.07 29.0715 135.475 29.0715C135.864 29.0715 136.205 29.2114 136.493 29.491C136.785 29.7707 136.931 30.1056 136.935 30.4957C136.931 30.7606 136.864 31.0035 136.729 31.2206C136.591 31.4414 136.415 31.6144 136.193 31.7395C135.976 31.8683 135.737 31.9345 135.475 31.9345Z" fill="white"/>
<path d="M144.909 18.4072H147.359V27.8167C147.355 28.6815 147.167 29.4212 146.801 30.0431C146.43 30.665 145.917 31.1397 145.258 31.4745C144.602 31.8057 143.834 31.975 142.962 31.975C142.164 31.975 141.448 31.8315 140.812 31.5518C140.175 31.2722 139.669 30.8527 139.299 30.3007C138.924 29.7487 138.74 29.0606 138.74 28.2363H141.194C141.198 28.5969 141.28 28.9096 141.437 29.1709C141.594 29.4322 141.812 29.6309 142.089 29.7707C142.369 29.9106 142.692 29.9805 143.055 29.9805C143.448 29.9805 143.786 29.8995 144.059 29.7339C144.332 29.572 144.542 29.3292 144.688 29.0053C144.83 28.6852 144.906 28.2878 144.909 27.8167V18.4072Z" fill="white"/>
<path d="M157.438 22.0873C157.379 21.5169 157.116 21.0716 156.66 20.7551C156.199 20.435 155.603 20.2768 154.873 20.2768C154.36 20.2768 153.918 20.3541 153.551 20.5049C153.184 20.6595 152.899 20.8655 152.704 21.1268C152.51 21.3881 152.412 21.6862 152.405 22.0211C152.405 22.3007 152.472 22.5436 152.603 22.746C152.734 22.952 152.91 23.125 153.139 23.2649C153.363 23.4084 153.614 23.5261 153.888 23.6218C154.165 23.7175 154.442 23.7984 154.719 23.8647L155.996 24.1775C156.51 24.2952 157.008 24.4535 157.484 24.6558C157.959 24.8546 158.39 25.1085 158.768 25.4139C159.146 25.7193 159.446 26.0873 159.667 26.5179C159.888 26.9484 160 27.4525 160 28.034C160 28.8178 159.798 29.5059 159.39 30.1021C158.982 30.6945 158.394 31.1582 157.622 31.4931C156.854 31.8243 155.925 31.9935 154.832 31.9935C153.776 31.9935 152.854 31.8317 152.079 31.5078C151.3 31.1877 150.693 30.7166 150.255 30.0984C149.817 29.4802 149.581 28.7258 149.547 27.8389H151.974C152.008 28.3026 152.158 28.689 152.412 29.0018C152.671 29.3109 153.008 29.5391 153.42 29.6936C153.836 29.8445 154.3 29.9218 154.813 29.9218C155.349 29.9218 155.821 29.8408 156.229 29.6826C156.633 29.5243 156.952 29.3036 157.18 29.0165C157.412 28.7332 157.529 28.3983 157.532 28.0156C157.529 27.666 157.423 27.3753 157.221 27.1471C157.015 26.919 156.731 26.7276 156.367 26.5731C156 26.4185 155.573 26.2787 155.086 26.1572L153.536 25.7672C152.416 25.4838 151.528 25.0533 150.88 24.4755C150.229 23.8978 149.906 23.1324 149.906 22.1719C149.906 21.3844 150.124 20.6926 150.562 20.1001C150.996 19.5077 151.592 19.0477 152.345 18.7202C153.101 18.389 153.955 18.2271 154.906 18.2271C155.873 18.2271 156.719 18.389 157.45 18.7202C158.18 19.0477 158.753 19.504 159.169 20.0854C159.585 20.6668 159.802 21.3329 159.813 22.0873H157.438Z" fill="white"/>
</g>
<defs>
<clipPath id="clip0_271_41">
<rect width="160" height="32" fill="#d9d9d9"/>
</clipPath>
</defs>
</svg>
