<svg width="136" height="17" viewBox="0 0 136 17" fill="none" xmlns="http://www.w3.org/2000/svg">
<path fill-rule="evenodd" clip-rule="evenodd" d="M4.81586 9.15014C4.63928 8.89329 4.39849 8.51204 4.09348 8.00637C3.78848 7.5007 3.58782 7.16761 3.4915 7.00708L3.39518 7.07932V16.7592H0V0.240793H3.15439L8.35552 7.89802L9.0779 9.02974C9.33475 9.47923 9.53541 9.80831 9.67989 10.017L9.75212 9.94476V0.240793H13.1473V16.7592H9.99292L4.81586 9.15014ZM30.7974 9.67989C30.7974 11.1889 30.4684 12.4972 29.8102 13.6048C29.152 14.7125 28.2651 15.5552 27.1494 16.1331C26.0338 16.7111 24.7937 17 23.4292 17C22.0647 17 20.8246 16.7111 19.7089 16.1331C18.5932 15.5552 17.7063 14.7125 17.0482 13.6048C16.39 12.4972 16.0609 11.1889 16.0609 9.67989V7.32011C16.0609 5.81113 16.39 4.50284 17.0482 3.39518C17.7063 2.28753 18.5932 1.44476 19.7089 0.866855C20.8246 0.288949 22.0647 0 23.4292 0C24.7937 0 26.0338 0.288949 27.1494 0.866855C28.2651 1.44476 29.152 2.28753 29.8102 3.39518C30.4684 4.50284 30.7974 5.81113 30.7974 7.32011V9.67989ZM26.8966 6.79037C26.8966 5.57034 26.5755 4.62725 25.9334 3.96105C25.2913 3.29485 24.4566 2.96176 23.4292 2.96176C22.4018 2.96176 21.567 3.29485 20.9249 3.96105C20.2828 4.62725 19.9618 5.57034 19.9618 6.79037V10.2096C19.9618 11.4297 20.2828 12.3728 20.9249 13.039C21.567 13.7051 22.4018 14.0382 23.4292 14.0382C24.4566 14.0382 25.2913 13.7051 25.9334 13.039C26.5755 12.3728 26.8966 11.4297 26.8966 10.2096V6.79037ZM33.687 0.240793H41.296V3.20255H39.3697V13.7975H41.296V16.7592H33.687V13.7975H35.6374V3.20255H33.687V0.240793ZM48.1105 10.2096C48.1105 11.4297 48.4396 12.3728 49.0977 13.039C49.7559 13.7051 50.5906 14.0382 51.602 14.0382C52.7417 14.0382 53.5845 13.7292 54.1303 13.1112C54.6761 12.4932 54.949 11.542 54.949 10.2578H58.3442C58.3442 11.6705 58.0593 12.8864 57.4894 13.9058C56.9195 14.9252 56.1369 15.6957 55.1416 16.2174C54.1464 16.7391 53.0227 17 51.7705 17H51.4334C50.0529 17 48.8168 16.7191 47.7252 16.1572C46.6336 15.5954 45.7748 14.7646 45.1487 13.665C44.5227 12.5654 44.2096 11.237 44.2096 9.67989V7.32011C44.2096 5.81113 44.5227 4.50284 45.1487 3.39518C45.7748 2.28753 46.6296 1.44476 47.7132 0.866855C48.7967 0.288949 50.0047 0 51.3371 0H51.6742C52.9585 0 54.1022 0.25283 55.1055 0.758499C56.1088 1.26417 56.8994 2.02667 57.4773 3.04603C58.0552 4.0654 58.3442 5.3135 58.3442 6.79037H54.8045C54.8045 5.53824 54.5276 4.58711 53.9738 3.93697C53.42 3.28682 52.6213 2.96176 51.5779 2.96176C50.5666 2.96176 49.7358 3.29485 49.0857 3.96105C48.4355 4.62725 48.1105 5.57034 48.1105 6.79037V10.2096ZM61.2337 16.7592V0.240793H72.864L72.4547 3.20255H64.8938V6.81445H71.949V9.7762H64.8938V13.7975H72.5269L72.9363 16.7592H61.2337ZM75.6331 16.7592V0.240793H79.3654V13.6771H86.1558L86.5652 16.7592H75.6331ZM98.0991 13.5085H91.5255L90.3697 16.7592H86.7819L92.7776 0.240793H97.2082L103.204 16.7592H99.3031L98.0991 13.5085ZM92.5368 10.6912H97.1119C96.5019 8.87723 95.7635 6.71814 94.8966 4.21388H94.7762L92.5368 10.6912ZM109.802 9.15014C109.625 8.89329 109.384 8.51204 109.079 8.00637C108.774 7.5007 108.574 7.16761 108.477 7.00708L108.381 7.07932V16.7592H104.986V0.240793H108.14L113.341 7.89802L114.064 9.02974C114.321 9.47923 114.521 9.80831 114.666 10.017L114.738 9.94476V0.240793H118.133V16.7592H114.979L109.802 9.15014ZM127.885 0.240793C129.25 0.240793 130.49 0.529742 131.606 1.10765C132.721 1.68556 133.608 2.52832 134.266 3.63598C134.924 4.74363 135.254 6.05193 135.254 7.56091V9.43909C135.254 10.9481 134.924 12.2564 134.266 13.364C133.608 14.4717 132.721 15.3144 131.606 15.8924C130.49 16.4703 129.25 16.7592 127.885 16.7592H121.625V0.240793H127.885ZM125.357 13.7975H127.885C128.913 13.7975 129.747 13.4644 130.39 12.7982C131.032 12.132 131.353 11.1889 131.353 9.96884V7.03116C131.353 5.81114 131.032 4.86804 130.39 4.20184C129.747 3.53564 128.913 3.20255 127.885 3.20255H125.357V13.7975Z" fill="white"/>
</svg>
