<svg width="166" height="40" viewBox="0 0 166 40" fill="none" xmlns="http://www.w3.org/2000/svg">
<g clip-path="url(#clip0_271_125)">
<path d="M36.3802 40H58.8198C59.5327 40 60.2327 39.8152 60.85 39.4642C61.4661 39.1142 61.9786 38.6093 62.336 38C62.692 37.3928 62.8794 36.7026 62.8793 35.9998C62.8787 35.2971 62.6906 34.6071 62.3342 34.0002L47.2644 8.2858C46.907 7.67666 46.3946 7.17175 45.7786 6.8218C45.1605 6.47051 44.4608 6.28581 43.7488 6.286C43.0363 6.286 42.3363 6.471 41.7192 6.822C41.1032 7.17189 40.5908 7.67682 40.2334 8.286L36.3802 14.8652L28.8462 1.9996C28.4887 1.39036 27.9761 0.88544 27.3599 0.5356C26.7417 0.184426 26.0419 -0.000198292 25.3299 1.59817e-07C24.6172 1.59817e-07 23.9169 0.1848 23.2996 0.5358C22.6835 0.885623 22.1709 1.39047 21.8133 1.9996L3.06071 34C2.70416 34.6069 2.51606 35.297 2.51563 35.9998C2.51522 36.702 2.70275 37.3918 3.0589 38C3.41636 38.6092 3.92884 39.1142 4.54485 39.4642C5.16311 39.8155 5.86294 40.0002 6.57508 40H20.6607C26.2418 40 30.3575 37.585 33.1894 32.8734L40.065 21.143L43.7478 14.8652L54.8004 33.7222H40.065L36.3802 40ZM20.4312 33.7158L10.6011 33.7136L25.3363 8.5724L32.6888 21.143L27.7659 29.545C25.8852 32.602 23.7487 33.7158 20.4312 33.7158ZM78.3726 40C78.5861 40 78.7908 39.9157 78.9417 39.7657C79.0926 39.6157 79.1774 39.4122 79.1774 39.2V20.6C79.1774 20.6 80.2326 22.2572 82.1956 25.6L89.9839 38.9922C90.3439 39.616 91.0069 40 91.7242 40H97.0853V10H91.6526C91.4391 10 91.2344 10.0843 91.0835 10.2343C90.9325 10.3843 90.8477 10.5878 90.8477 10.8V29.6L87.4271 23.6L80.0652 11.004C79.7046 10.3824 79.0428 10 78.3269 10H72.9399V40H78.3726ZM138.576 28.7714L145.487 18.4H140.31C139.977 18.4006 139.649 18.4836 139.357 18.6415C139.064 18.7994 138.815 19.0272 138.633 19.3044L135.468 24.1L132.303 19.3044C132.121 19.0272 131.872 18.7994 131.579 18.6415C131.287 18.4836 130.959 18.4006 130.626 18.4H125.49L132.401 28.7286L124.958 40H129.981C130.312 39.9994 130.637 39.9177 130.928 39.7622C131.219 39.6067 131.467 39.3821 131.65 39.1084L135.509 33.3572L139.328 39.1012C139.51 39.3769 139.758 39.6033 140.05 39.7601C140.342 39.917 140.669 39.9994 141.001 40H145.978L138.576 28.7714ZM148.314 18.4H152.28V12.0142H157.965V18.4H163.485V23.3714H157.965V31.9C157.965 34 159.028 34.9858 160.868 34.9858H163.485V40H160.091C155.347 40 152.28 37.1714 152.28 32.1572V23.3714H148.314V18.4ZM121.231 18.4H118.213C117.511 18.4 116.961 18.429 116.502 18.9046C116.043 19.3538 115.798 19.713 115.798 20.4V30.8C115.798 32.4118 115.722 33.2074 114.993 34C114.264 34.7662 113.46 35 111.975 35C110.517 35 109.686 34.7662 108.957 34C108.228 33.2074 108.152 32.4118 108.152 30.8V20.4C108.152 19.713 107.907 19.354 107.448 18.9046C106.989 18.429 106.439 18.4 105.737 18.4H102.719V30.8844C102.719 33.6852 103.502 35.9046 105.069 37.5428C106.662 39.181 108.978 40 111.975 40C114.972 40 117.248 39.181 118.841 37.5428C120.434 35.9046 121.231 33.6852 121.231 30.8844V18.4Z" fill="white"/>
</g>
<defs>
<clipPath id="clip0_271_125">
<rect width="166" height="40" fill="#d9d9d9"/>
</clipPath>
</defs>
</svg>
