<svg width="176" height="19" viewBox="0 0 176 19" fill="none" xmlns="http://www.w3.org/2000/svg">
<path fill-rule="evenodd" clip-rule="evenodd" d="M11.8024 15.2761C10.9095 15.8101 9.88333 16.09 8.83822 16.0846C8.01044 16.0504 7.19831 15.8514 6.45103 15.4996C5.70374 15.1478 5.03683 14.6505 4.49067 14.0378C3.94452 13.4252 3.53048 12.71 3.27363 11.9354C3.01678 11.1608 2.92246 10.343 2.99638 9.53159C2.92246 8.72013 3.01678 7.90236 3.27363 7.12779C3.53048 6.35322 3.94452 5.63796 4.49067 5.02533C5.03683 4.41269 5.70374 3.91542 6.45103 3.56361C7.19831 3.21181 8.01044 3.0128 8.83822 2.97862C9.66601 3.0128 10.4781 3.21181 11.2254 3.56361C11.9727 3.91542 12.6396 4.41269 13.1858 5.02533C13.7319 5.63796 14.146 6.35322 14.4028 7.12779C14.6597 7.90236 14.754 8.72013 14.6801 9.53159C14.6895 10.4916 14.5133 11.4447 14.1608 12.34L16.5624 14.3187C17.2876 12.8243 17.6576 11.1873 17.6443 9.53159C17.7485 8.3273 17.599 7.11482 17.205 5.96995C16.811 4.82508 16.1811 3.77244 15.3546 2.87785C14.5281 1.98325 13.5228 1.26595 12.4016 0.770771C11.2803 0.275597 10.0673 0.0132048 8.83822 0C7.60917 0.0132048 6.39611 0.275597 5.27487 0.770771C4.15364 1.26595 3.14835 1.98325 2.32185 2.87785C1.49536 3.77244 0.865434 4.82508 0.471466 5.96995C0.0774967 7.11482 -0.0720445 8.3273 0.0321919 9.53159C-0.0626649 10.7308 0.0938643 11.9364 0.492085 13.0736C0.890305 14.2109 1.52174 15.2557 2.34727 16.1433C3.17281 17.0308 4.17487 17.7423 5.29138 18.2336C6.4079 18.7249 7.61511 18.9855 8.83822 18.9993C10.7478 19.0226 12.6115 18.4242 14.1392 17.2973L15.3724 18.1696C15.6886 18.4788 16.1165 18.6524 16.5624 18.6524C17.0084 18.6524 17.4362 18.4788 17.7524 18.1696C18.8775 17.042 26.407 8.44652 26.407 8.44652C26.6739 8.17986 26.8235 7.82071 26.8235 7.44655C26.8235 7.07239 26.6739 6.71324 26.407 6.44659C26.2779 6.31533 26.1232 6.21095 25.9523 6.13967C25.7813 6.06838 25.5975 6.03165 25.4117 6.03165C25.226 6.03165 25.0422 6.06838 24.8712 6.13967C24.7002 6.21095 24.5456 6.31533 24.4165 6.44659L16.6706 15.3186L11.413 11.0634C11.1029 10.8042 10.701 10.6766 10.2953 10.7085C9.88968 10.7404 9.51348 10.9293 9.24932 11.2337C9.00116 11.5449 8.88119 11.9365 8.91327 12.3307C8.94534 12.7249 9.1271 13.0928 9.42241 13.3612L11.8024 15.2761Z" fill="#F05A22"/>
<path d="M49.7137 16.6183L47.7517 18.8312L45.667 16.9462C44.9298 17.4761 44.1166 17.8906 43.2553 18.1755C42.3285 18.4605 41.3631 18.5987 40.3939 18.5853C39.1323 18.6156 37.8786 18.3782 36.715 17.8887C35.6496 17.4314 34.6791 16.7782 33.8537 15.9627C32.2317 14.2502 31.3375 11.9725 31.3602 9.61106C31.344 8.41787 31.5663 7.23351 32.0142 6.12791C32.4397 5.0413 33.0792 4.05178 33.8945 3.21845C34.7177 2.38978 35.6882 1.72267 36.7559 1.25149C39.1212 0.323721 41.7484 0.323721 44.1137 1.25149C45.1724 1.69876 46.1313 2.35357 46.9341 3.17747C47.74 4.0028 48.3785 4.97693 48.8145 6.04595C49.2582 7.15279 49.4804 8.3363 49.4685 9.5291C49.4901 10.5045 49.3378 11.4759 49.0188 12.3976C48.7347 13.3148 48.2919 14.1747 47.7108 14.9382L49.7137 16.6183ZM40.4348 12.5205L42.3968 10.2667L45.3808 13.0123C45.6942 12.5487 45.929 12.0364 46.0757 11.4961C46.2073 10.9178 46.2758 10.327 46.2801 9.734C46.3013 8.90538 46.1481 8.08158 45.8305 7.31628C45.6515 6.55901 45.3174 5.84732 44.8494 5.22639C44.3218 4.65109 43.6818 4.19078 42.9691 3.8741C42.1536 3.54067 41.2723 3.40044 40.3939 3.46432C39.5824 3.46392 38.7781 3.61684 38.0231 3.91508C37.3161 4.22113 36.6873 4.68341 36.1836 5.26736C35.6499 5.83589 35.2332 6.50427 34.9573 7.23432C34.6766 7.99466 34.538 8.80037 34.5486 9.61106C34.5064 11.242 35.0918 12.8268 36.1836 14.0367C36.7239 14.5869 37.3615 15.0315 38.0639 15.348C38.8011 15.7111 39.6136 15.8937 40.4348 15.8807C40.9693 15.9253 41.5075 15.8838 42.029 15.7578C42.5156 15.6107 42.9823 15.4042 43.4188 15.1431L40.4348 12.5205Z" fill="#F05A22"/>
<path d="M60.3849 5.14355H63.4098V18.2976H60.3849V16.2487C59.9622 16.8915 59.4211 17.4478 58.7908 17.8878C58.0682 18.3762 57.2089 18.6202 56.3382 18.5844C55.7187 18.6057 55.1019 18.4921 54.5303 18.2516C53.9588 18.0111 53.446 17.6493 53.0272 17.1912C52.166 16.1626 51.7275 14.844 51.8009 13.5031V5.30747H54.8257V12.6016C54.7745 13.4572 55.0361 14.3022 55.5615 14.9783C55.8223 15.2556 56.1403 15.4726 56.4933 15.6141C56.8462 15.7557 57.2257 15.8184 57.6053 15.7979C57.9997 15.8091 58.3921 15.7384 58.7579 15.5903C59.1236 15.4423 59.4549 15.2199 59.7309 14.9374C60.289 14.2769 60.5677 13.4241 60.5076 12.5606L60.3849 5.14355Z" fill="#F05A22"/>
<path d="M69.7857 15.2645C70.4678 15.8477 71.3424 16.1546 72.2383 16.125C72.9024 16.147 73.5619 16.0064 74.1595 15.7153C74.7649 15.4275 75.3177 15.0396 75.7946 14.5679L77.5523 16.125C76.9189 16.8585 76.1569 17.4696 75.3041 17.9281C74.3358 18.3928 73.2704 18.6177 72.1975 18.5837C71.2339 18.612 70.2745 18.4448 69.377 18.092C68.5798 17.7803 67.8559 17.3058 67.2514 16.6987C66.6512 16.08 66.1666 15.3583 65.8207 14.5679C65.5311 13.6271 65.4202 12.6402 65.4937 11.6584C65.4956 10.7517 65.6475 9.85164 65.9434 8.99482C66.2545 8.19317 66.712 7.45665 67.2923 6.82297C67.8787 6.20303 68.5891 5.71428 69.377 5.38873C70.1909 5.0393 71.0668 4.85812 71.9522 4.85602C72.8965 4.83887 73.8325 5.03494 74.6909 5.42971C75.4537 5.79375 76.1245 6.3261 76.653 6.98689C77.183 7.65871 77.5848 8.42275 77.8384 9.24069C78.0891 10.134 78.213 11.0583 78.2063 11.9862V12.355C78.2265 12.5046 78.2265 12.6562 78.2063 12.8058H68.4777C68.5885 13.7615 69.0558 14.6398 69.7857 15.2645ZM75.1814 10.7979C75.1209 10.3367 75.0113 9.88335 74.8544 9.44558C74.707 9.02992 74.4697 8.65209 74.1595 8.33917C73.9038 8.00027 73.5662 7.7323 73.1785 7.56058C72.7528 7.37451 72.2939 7.27692 71.8296 7.27373C71.4002 7.26539 70.9741 7.34878 70.5794 7.51835C70.1847 7.68792 69.8306 7.93979 69.5405 8.25721C68.9343 8.96282 68.5503 9.83265 68.4368 10.7569L75.1814 10.7979Z" fill="#F05A22"/>
<path d="M83.1938 18.298H80.1689V5.14396H83.1938V8.09439C83.5517 7.15585 84.1597 6.33376 84.9515 5.71765C85.7687 5.09376 86.7902 4.80116 87.8128 4.89809V8.09439C87.1055 8.04153 86.3951 8.13928 85.7281 8.38124C85.1916 8.61193 84.7055 8.94609 84.2975 9.36472C83.8941 9.8472 83.5887 10.404 83.3982 11.0038C83.175 11.748 83.0647 12.5216 83.0712 13.2986L83.1938 18.298Z" fill="#F05A22"/>
<path d="M101.669 14.4045C101.314 15.2121 100.815 15.9481 100.197 16.5763C99.5625 17.2056 98.8131 17.7065 97.9896 18.0515C97.0957 18.4205 96.1358 18.6018 95.1692 18.5842C94.2294 18.5976 93.297 18.4162 92.4304 18.0515C91.5909 17.7372 90.8354 17.2323 90.2231 16.5763C89.5966 15.955 89.0967 15.2173 88.7516 14.4045C88.404 13.5321 88.2371 12.598 88.261 11.6589C88.251 10.7304 88.4319 9.80973 88.7924 8.95435C89.1178 8.14078 89.6045 7.40191 90.2231 6.7825C90.8597 6.14538 91.6079 5.63139 92.4304 5.2663C93.3169 4.92047 94.2589 4.73993 95.21 4.73359C96.1766 4.71602 97.1366 4.89733 98.0305 5.2663C98.8415 5.63429 99.5871 6.13259 100.238 6.74152C100.856 7.36093 101.343 8.0998 101.669 8.91337C101.997 9.78913 102.137 10.725 102.077 11.6589C102.116 12.5918 101.977 13.5235 101.669 14.4045ZM98.8889 10.3066C98.6917 9.73449 98.3864 9.2058 97.9896 8.74946C97.6532 8.36084 97.2342 8.05278 96.7633 7.84794C96.2519 7.6103 95.6915 7.49794 95.1283 7.52011C94.5785 7.50133 94.0321 7.61369 93.5341 7.84794C93.0581 8.06446 92.6279 8.37049 92.2669 8.74946C91.9287 9.14952 91.6656 9.60768 91.4903 10.1017C91.3233 10.6178 91.2405 11.1574 91.245 11.6999C91.233 12.2731 91.3301 12.8433 91.5312 13.38C91.7041 13.8842 91.9829 14.3453 92.3487 14.7323C92.7097 15.1112 93.1399 15.4173 93.6159 15.6338C94.0984 15.8709 94.6322 15.9836 95.1692 15.9616C95.7495 16.0295 96.3377 15.9593 96.886 15.7567C97.3513 15.5422 97.7686 15.2356 98.1128 14.8553C98.457 14.4751 98.721 14.029 98.8889 13.5439C99.0859 13.0203 99.1829 12.4643 99.1751 11.9048C99.18 11.292 99.0833 10.6827 98.8889 10.1017V10.3066Z" fill="#F05A22"/>
<path d="M122.189 16.617L120.227 18.8298L118.143 16.9448C117.405 17.4747 116.592 17.8892 115.731 18.1742C114.804 18.4591 113.839 18.5974 112.869 18.584C111.608 18.6143 110.354 18.3769 109.191 17.8873C108.132 17.4401 107.173 16.7853 106.37 15.9613C105.556 15.1429 104.916 14.167 104.49 13.0929C104.046 11.986 103.824 10.8025 103.836 9.60971C103.82 8.41653 104.042 7.23217 104.49 6.12656C104.915 5.03995 105.555 4.05043 106.37 3.2171C107.193 2.38844 108.164 1.72133 109.231 1.25015C110.402 0.783335 111.651 0.546819 112.91 0.553515C114.17 0.543709 115.42 0.780337 116.589 1.25015C117.655 1.70737 118.625 2.36063 119.451 3.17613C120.23 4.01388 120.854 4.98554 121.29 6.0446C121.734 7.15144 121.956 8.33495 121.944 9.52776C121.966 10.5031 121.813 11.4745 121.494 12.3962C121.21 13.3134 120.768 14.1734 120.186 14.9369L122.189 16.617ZM112.91 12.5192L114.872 10.2654L117.856 13.0109C118.14 12.5015 118.333 11.947 118.429 11.3718C118.492 10.7861 118.492 10.1954 118.429 9.60971C118.442 8.78542 118.304 7.96571 118.02 7.192C117.734 6.46686 117.319 5.80024 116.794 5.22504C116.266 4.64974 115.626 4.18943 114.913 3.87276C114.263 3.61189 113.57 3.47299 112.869 3.46297C112.058 3.46257 111.254 3.6155 110.499 3.91373C109.792 4.21978 109.163 4.68206 108.659 5.26602C108.125 5.82659 107.72 6.49811 107.474 7.23297C107.161 7.98525 107.008 8.79474 107.024 9.60971C107.003 10.4383 107.156 11.2621 107.474 12.0274C107.745 12.7628 108.147 13.443 108.659 14.0354C109.2 14.5855 109.837 15.0302 110.54 15.3467C111.277 15.7097 112.089 15.8923 112.91 15.8794C113.465 15.8808 114.016 15.7979 114.545 15.6335C115.016 15.4786 115.468 15.2725 115.894 15.0188L112.91 12.5192Z" fill="#F05A22"/>
<path d="M132.901 5.14355H135.885V18.2976H132.901V16.2487C132.452 16.8833 131.899 17.4374 131.266 17.8878C130.543 18.3762 129.684 18.6202 128.813 18.5844C128.174 18.624 127.533 18.5194 126.939 18.2783C126.345 18.0372 125.812 17.6657 125.38 17.1912C124.519 16.1626 124.08 14.844 124.153 13.5031V5.30747H127.178V12.6016C127.127 13.4572 127.389 14.3022 127.914 14.9783C128.175 15.2556 128.493 15.4726 128.846 15.6141C129.199 15.7557 129.578 15.8184 129.958 15.7979C130.353 15.8116 130.746 15.7421 131.112 15.5939C131.478 15.4456 131.809 15.222 132.083 14.9374C132.652 14.281 132.946 13.4291 132.901 12.5606V5.14355Z" fill="#F05A22"/>
<path d="M138.867 18.2976V5.14355H141.892V18.2976H138.867Z" fill="#F05A22"/>
<path d="M148.432 14.2004C148.408 14.4227 148.432 14.6476 148.503 14.8597C148.574 15.0718 148.689 15.2662 148.841 15.4297C148.999 15.5769 149.187 15.6893 149.391 15.7599C149.595 15.8304 149.811 15.8575 150.026 15.8395C150.666 15.8357 151.296 15.6813 151.866 15.3887V17.8474C151.489 18.053 151.092 18.2178 150.68 18.3392C150.179 18.4072 149.67 18.4072 149.168 18.3392C148.666 18.4017 148.158 18.4017 147.656 18.3392C147.223 18.196 146.821 17.9737 146.47 17.6835C146.1 17.365 145.818 16.9555 145.653 16.4952C145.474 15.8973 145.391 15.2749 145.407 14.6511V7.56189H143.731V5.14417H145.407V1.53809H148.432V5.14417H151.948V7.56189H148.432V14.2004Z" fill="#F05A22"/>
<path d="M161.923 18.2979V16.6998C161.417 17.2903 160.79 17.7645 160.085 18.0898C159.379 18.4151 158.612 18.584 157.836 18.5848C157.224 18.5962 156.615 18.499 156.037 18.2979C155.502 18.1546 155.001 17.9036 154.566 17.5603C154.139 17.1979 153.791 16.7516 153.544 16.249C153.289 15.712 153.163 15.1225 153.176 14.5279C153.169 13.919 153.297 13.3162 153.552 12.7633C153.806 12.2104 154.181 11.7213 154.647 11.3316C155.18 10.9914 155.758 10.7292 156.364 10.553C157.046 10.3859 157.746 10.3033 158.449 10.3072C159.128 10.2361 159.813 10.2361 160.493 10.3072C161.032 10.391 161.565 10.5142 162.087 10.676V10.4301C162.108 10.0434 162.046 9.65666 161.905 9.29611C161.763 8.93555 161.547 8.60957 161.269 8.34021C160.547 7.78093 159.646 7.50419 158.735 7.56162C158.075 7.5398 157.414 7.60873 156.773 7.76651C156.175 7.93463 155.588 8.13992 155.015 8.38119L154.198 5.96347C154.91 5.62996 155.648 5.35585 156.405 5.1439C157.359 4.94508 158.335 4.87616 159.307 4.93901C160.808 4.88603 162.272 5.41429 163.395 6.41423C163.887 6.96984 164.264 7.61861 164.503 8.32236C164.741 9.02611 164.837 9.77062 164.785 10.5121V18.2979H161.923ZM161.923 12.7249C161.492 12.5434 161.038 12.4194 160.574 12.3561C160.031 12.2934 159.483 12.2934 158.939 12.3561C158.167 12.3067 157.397 12.4924 156.732 12.8888C156.476 13.0652 156.27 13.3052 156.134 13.5852C155.997 13.8653 155.936 14.176 155.955 14.4869C155.936 14.7661 155.99 15.0455 156.112 15.2972C156.234 15.5488 156.419 15.764 156.65 15.9212C157.187 16.2611 157.814 16.4323 158.449 16.4129C158.91 16.478 159.378 16.478 159.839 16.4129C160.263 16.2529 160.662 16.032 161.024 15.7573C161.333 15.5318 161.585 15.2371 161.76 14.8967C161.923 14.5365 162.007 14.1451 162.005 13.7493L161.923 12.7249Z" fill="#F05A22"/>
<path d="M170.505 18.298H167.48V5.14396H170.505V8.09439C170.863 7.15585 171.471 6.33376 172.263 5.71765C173.08 5.09376 174.102 4.80116 175.124 4.89809V8.09439C174.512 8.07945 173.903 8.17666 173.326 8.38124C172.795 8.62201 172.311 8.95496 171.895 9.36472C171.492 9.8472 171.186 10.404 170.996 11.0038C170.773 11.748 170.662 12.5216 170.669 13.2986L170.505 18.298Z" fill="#F05A22"/>
<path d="M140.38 3.6278C141.306 3.6278 142.056 2.87559 142.056 1.94769C142.056 1.01979 141.306 0.267578 140.38 0.267578C139.454 0.267578 138.704 1.01979 138.704 1.94769C138.704 2.87559 139.454 3.6278 140.38 3.6278Z" fill="#F05A22"/>
</svg>
