<svg width="89" height="19" viewBox="0 0 89 19" fill="none" xmlns="http://www.w3.org/2000/svg">
    <path
        d="M24.33 9.15c-2.174-.258-2.947-.689-2.947-1.664 0-.861.63-1.349 1.89-1.349 1.242 0 1.829.423 1.929 1.375a.35.35 0 0 0 .343.318h3.353a.345.345 0 0 0 .345-.366c-.154-2.863-2.152-4.397-5.943-4.397-3.92 0-6.096 1.693-6.096 4.935 0 2.84 1.46 4.102 5.151 4.533 2.232.258 3.034.717 3.034 1.779 0 .918-.687 1.348-2.09 1.348-1.495 0-2.196-.482-2.303-1.557a.35.35 0 0 0-.349-.308h-3.345a.342.342 0 0 0-.325.227.345.345 0 0 0-.02.138c.144 3.08 2.156 4.57 6.316 4.57 4.236 0 6.297-1.578 6.297-4.848-.002-2.896-1.461-4.301-5.24-4.734zM42.79 3.414h-3.545a.344.344 0 0 0-.345.346v9.194c0 .774-.538 1.944-1.881 1.944-1.202 0-1.882-.467-1.882-1.93V3.76a.346.346 0 0 0-.345-.346h-3.548a.344.344 0 0 0-.345.346v9.581c0 3.587 1.631 5.394 4.751 5.394 1.581 0 2.167-.154 3.221-1.23a.346.346 0 0 1 .595.215l.042.693a.345.345 0 0 0 .344.322h2.937a.344.344 0 0 0 .345-.345V3.76a.346.346 0 0 0-.345-.346zM59.19.029H55.47a.259.259 0 0 0-.259.259v18.189c0 .143.116.259.259.259h3.719a.259.259 0 0 0 .258-.26V.289a.259.259 0 0 0-.258-.26zM53.773.029h-2.86c-2.948 0-4.38 1.577-4.38 4.876v1.402c0 .194-.153.088-.344.088h-1.6a.344.344 0 0 0-.344.345v2.522a.346.346 0 0 0 .344.346h1.603a.345.345 0 0 1 .345.346v8.436a.346.346 0 0 0 .345.346h3.543a.344.344 0 0 0 .345-.346V9.954a.346.346 0 0 1 .344-.346h2.545a.344.344 0 0 0 .344-.346V6.74a.346.346 0 0 0-.344-.345h-2.544c-.194 0-.345.103-.345-.088V5.106c0-1.32.429-1.806 1.574-1.806h1.43a.344.344 0 0 0 .344-.345V.375a.347.347 0 0 0-.345-.346zM73.625 13.8h-3.48a.285.285 0 0 0-.278.23c-.185.888-.994 1.377-2.316 1.377-1.832 0-2.605-.947-2.605-2.898a.287.287 0 0 1 .287-.287h8.5a.286.286 0 0 0 .286-.287V9.496c0-4.16-2.29-6.426-6.668-6.426-4.35 0-6.64 2.21-6.64 6.369v2.927c0 4.217 2.29 6.369 6.81 6.369 3.901 0 6.091-1.582 6.388-4.616a.29.29 0 0 0-.284-.32zm-6.13-7.402c1.684 0 2.44.749 2.513 2.54a.29.29 0 0 1-.174.277.288.288 0 0 1-.113.023h-4.48a.288.288 0 0 1-.287-.3c.073-1.791.831-2.54 2.542-2.54z"
        fill="#FE4C40" />
    <path
        d="m88.537 18.177-4.393-6.924a.355.355 0 0 1-.004-.373l4.21-6.928a.354.354 0 0 0-.3-.538h-3.814a.351.351 0 0 0-.31.185l-2.008 3.708a.353.353 0 0 1-.61.016l-2.297-3.74a.353.353 0 0 0-.3-.169h-4.222a.352.352 0 0 0-.297.543l4.188 6.603a.354.354 0 0 1 .004.373l-4.415 7.25a.355.355 0 0 0 .3.538h3.815a.354.354 0 0 0 .31-.184l2.21-4.062a.351.351 0 0 1 .61-.016l2.504 4.092a.353.353 0 0 0 .3.169h4.222a.352.352 0 0 0 .297-.543M9.005 8.006a.172.172 0 0 1-.097-.084.413.413 0 0 1-.017-.268c.038-.177.772-2.048.958-2.524a.179.179 0 0 0-.119-.237c-.15-.041-.441-.035-.998.157a.178.178 0 0 0-.12.158c-.027.477-.144 2.253-.457 2.567h.003a6.469 6.469 0 0 0-1.25-.122c-3.29 0-5.959 2.48-5.959 5.54s2.668 5.54 5.96 5.54c3.29 0 5.959-2.48 5.959-5.54 0-2.374-1.604-4.399-3.863-5.187z"
        fill="#FE4C40" />
    <path
        d="M3.98 3.418c.844.193 3.736.992 3.859 2.922a.04.04 0 0 1-.05.043.04.04 0 0 1-.021-.014 3.717 3.717 0 0 0-1.29-.994.08.08 0 0 0-.096.122A46.72 46.72 0 0 1 7.53 7.045a.04.04 0 0 1-.03.064c-.366.036-2.16.014-3.66-3.521a.123.123 0 0 1 .138-.17zM9.95 6.974a.041.041 0 0 0 .012.07c.083.031.218.099.218.223 0 .108-.162.343-.321.459a.04.04 0 0 0 .018.073c.656.07 3.22.194 3.851-1.333.007-.02-1.947-.991-3.778.508z"
        fill="#FE4C40" />
</svg>
