<svg width="142" height="17" viewBox="0 0 142 17" fill="none" xmlns="http://www.w3.org/2000/svg">
<path d="M5.81393 15.3002L0.44873 1.02019H2.30513L6.81353 13.4846L11.3627 1.02019H13.1783L7.81313 15.3002H5.81393ZM21.936 15.3002V1.02019H30.7692V2.42779H23.6496V7.40539H30.1572V8.79259H23.6496V13.8926H30.7692V15.3002H21.936ZM40.251 15.3002V1.02019H41.9646V13.9334H48.615V15.3002H40.251ZM62.9213 15.545C61.5205 15.545 60.2897 15.239 59.2289 14.627C58.1817 14.0014 57.3589 13.131 56.7605 12.0158C56.1757 10.9006 55.8833 9.61539 55.8833 8.16019C55.8833 6.70499 56.1757 5.42659 56.7605 4.32499C57.3589 3.20979 58.1817 2.33939 59.2289 1.71379C60.2897 1.08819 61.5205 0.775391 62.9213 0.775391C64.3357 0.775391 65.5665 1.08819 66.6137 1.71379C67.6745 2.33939 68.4973 3.20979 69.0821 4.32499C69.6669 5.42659 69.9593 6.70499 69.9593 8.16019C69.9593 9.61539 69.6669 10.9006 69.0821 12.0158C68.4973 13.131 67.6745 14.0014 66.6137 14.627C65.5665 15.239 64.3357 15.545 62.9213 15.545ZM62.9213 14.0354C63.9685 14.0354 64.8865 13.8042 65.6753 13.3418C66.4777 12.8658 67.0965 12.1926 67.5317 11.3222C67.9805 10.4382 68.2049 9.38419 68.2049 8.16019C68.2049 6.93619 67.9805 5.88899 67.5317 5.01859C67.0965 4.14819 66.4777 3.48179 65.6753 3.01939C64.8865 2.54339 63.9685 2.30539 62.9213 2.30539C61.8741 2.30539 60.9493 2.54339 60.1469 3.01939C59.3581 3.48179 58.7393 4.14819 58.2905 5.01859C57.8553 5.88899 57.6377 6.93619 57.6377 8.16019C57.6377 9.38419 57.8553 10.4382 58.2905 11.3222C58.7393 12.1926 59.3581 12.8658 60.1469 13.3418C60.9493 13.8042 61.8741 14.0354 62.9213 14.0354ZM85.4943 15.545C84.0935 15.545 82.8831 15.239 81.8631 14.627C80.8567 14.0014 80.0747 13.1378 79.5171 12.0362C78.9595 10.921 78.6807 9.62899 78.6807 8.16019C78.6807 6.70499 78.9595 5.42659 79.5171 4.32499C80.0747 3.20979 80.8567 2.33939 81.8631 1.71379C82.8831 1.08819 84.0935 0.775391 85.4943 0.775391C87.1263 0.775391 88.4523 1.16979 89.4723 1.95859C90.5059 2.73379 91.1655 3.82179 91.4511 5.22259H89.5539C89.3363 4.33859 88.8875 3.63139 88.2073 3.10099C87.5411 2.55699 86.6367 2.28499 85.4943 2.28499C84.4743 2.28499 83.5835 2.52299 82.8219 2.99899C82.0603 3.46139 81.4687 4.13459 81.0471 5.01859C80.6391 5.88899 80.4351 6.93619 80.4351 8.16019C80.4351 9.38419 80.6391 10.4382 81.0471 11.3222C81.4687 12.1926 82.0603 12.8658 82.8219 13.3418C83.5835 13.8042 84.4743 14.0354 85.4943 14.0354C86.6367 14.0354 87.5411 13.777 88.2073 13.2602C88.8875 12.7298 89.3363 12.0294 89.5539 11.159H91.4511C91.1655 12.5326 90.5059 13.607 89.4723 14.3822C88.4523 15.1574 87.1263 15.545 85.4943 15.545ZM100.714 15.3002V1.02019H102.427V15.3002H100.714ZM115.601 15.3002V2.42779H111.337V1.02019H121.578V2.42779H117.314V15.3002H115.601ZM134.02 15.3002V9.87379L129.369 1.02019H131.307L134.877 8.24179L138.447 1.02019H140.364L135.734 9.87379V15.3002H134.02Z" fill="#69B9FF"/>
</svg>
