<svg width="172" height="40" viewBox="0 0 172 40" fill="none" xmlns="http://www.w3.org/2000/svg">
<path d="M85.805 9.99998C79.0887 9.99998 74.246 14.4999 74.246 21.25C74.246 28 79.6971 32.5 86.4136 32.5C90.4713 32.5 94.0486 30.85 96.2631 28.0688L91.6092 25.3062C90.3803 26.6875 88.5123 27.4937 86.4136 27.4937C83.4995 27.4937 81.0233 25.9312 80.1047 23.4312H97.1512C97.2851 22.7312 97.3645 22.0063 97.3645 21.2437C97.3645 14.5 92.5213 9.99998 85.805 9.99998ZM80.0499 19.0625C80.8104 16.5687 82.8909 15 85.7992 15C88.7133 15 90.7938 16.5687 91.548 19.0625H80.0499ZM151.315 9.99998C144.598 9.99998 139.756 14.4999 139.756 21.25C139.756 28 145.207 32.5 151.923 32.5C155.981 32.5 159.558 30.85 161.773 28.0688L157.119 25.3062C155.89 26.6875 154.022 27.4937 151.923 27.4937C149.009 27.4937 146.533 25.9312 145.615 23.4312H162.662C162.795 22.7312 162.874 22.0063 162.874 21.2437C162.874 14.5 158.032 9.99998 151.315 9.99998ZM145.566 19.0625C146.327 16.5687 148.407 15 151.315 15C154.229 15 156.31 16.5687 157.064 19.0625H145.566ZM121.821 21.25C121.821 24.9999 124.206 27.5 127.904 27.5C130.412 27.5 132.291 26.3312 133.259 24.425L137.931 27.1937C135.996 30.5063 132.37 32.5 127.904 32.5C121.182 32.5 116.346 28 116.346 21.25C116.346 14.4999 121.188 9.99998 127.904 9.99998C132.37 9.99998 135.99 11.9938 137.931 15.3062L133.259 18.075C132.291 16.1688 130.412 15 127.904 15C124.212 15 121.821 17.5 121.821 21.25ZM172 3.125V31.8749H166.524V3.125H172ZM22.4794 0L44.9589 40H0L22.4794 0ZM78.6811 3.125L61.823 33.125L44.965 3.125H51.286L61.823 21.875L72.3601 3.125H78.6811ZM114.521 10.625V16.6812C113.912 16.5 113.267 16.375 112.573 16.375C109.039 16.375 106.49 18.875 106.49 22.625V31.8749H101.015V10.625H106.49V16.375C106.49 13.2 110.085 10.625 114.521 10.625Z" fill="#d9d9d9"/>
</svg>
